<?xml version="1.0" standalone="no"?>
<!DOCTYPE svg PUBLIC "-//W3C//DTD SVG 20010904//EN"
 "http://www.w3.org/TR/2001/REC-SVG-20010904/DTD/svg10.dtd">
<svg version="1.0" xmlns="http://www.w3.org/2000/svg"
 width="500.000000pt" height="500.000000pt" viewBox="0 0 500.000000 500.000000"
 preserveAspectRatio="xMidYMid meet">

<g transform="translate(0.000000,500.000000) scale(0.100000,-0.100000)"
fill="#000000" stroke="none">
<path d="M1580 3080 l0 -160 84 0 c74 0 86 3 110 25 25 23 30 39 26 80 -2 24
-28 55 -47 55 -17 0 -17 9 1 29 31 35 20 101 -19 119 -14 7 -55 12 -90 12
l-65 0 0 -160z m114 94 c9 -8 16 -19 16 -24 0 -14 -30 -40 -46 -40 -10 0 -14
12 -14 40 0 44 16 52 44 24z m30 -147 c16 -25 -5 -51 -43 -55 -30 -3 -31 -2
-31 37 0 22 5 41 13 44 18 6 49 -7 61 -26z"/>
<path d="M1847 3113 c-4 -3 -7 -49 -7 -100 l0 -94 33 3 c30 3 32 5 35 48 4 82
9 90 47 90 33 0 55 20 55 49 0 14 -46 14 -72 0 -14 -8 -23 -8 -31 0 -12 12
-50 15 -60 4z"/>
<path d="M2045 3110 c-3 -5 -5 -41 -4 -80 3 -89 20 -109 100 -111 93 -3 113
19 114 131 0 55 0 55 -32 58 l-33 3 0 -60 c0 -59 -15 -91 -43 -91 -29 1 -39
20 -43 81 -3 35 -10 67 -17 71 -17 11 -35 10 -42 -2z"/>
<path d="M2312 3112 c-14 -4 -17 -159 -3 -180 4 -8 19 -12 32 -10 22 3 24 9
29 65 3 34 10 67 16 73 16 16 58 9 61 -10 1 -8 5 -41 8 -73 6 -56 8 -58 33
-55 26 3 27 5 30 79 3 73 1 78 -24 98 -29 23 -83 28 -101 10 -6 -6 -17 -8 -24
-3 -16 9 -40 12 -57 6z"/>
<path d="M2611 3103 c-61 -30 -74 -108 -25 -154 32 -30 118 -38 162 -15 43 22
59 73 37 119 -29 63 -104 84 -174 50z m83 -43 c21 -8 26 -16 26 -44 0 -34 -13
-46 -50 -46 -41 0 -57 61 -22 88 19 14 15 14 46 2z"/>
</g>
</svg>
